# xmcd CD database file
#
# Track frame offsets:
#	150
#	21625
#	49250
#	67062
#	84957
#	108450
#	129252
#	145387
#	165992
#	179767
#	200045
#	215460
#	247835
#	260692
#	282292
#
# Disc length: 3950 seconds
#
# Revision: 0
# Processed by: cddbd v1.5.1PL0 Copyright (c) Steve Scherf et al.
# Submitted via: CDex 1.51
#
DISCID=e60f6c0f
DTITLE=Various Artist - Hound Dog  Taylor a Tribute
DYEAR=1900
DGENRE=Blues
TTITLE0=Give back my wig/ Luther Allison
TTITLE1=Sadie/Son Seals
TTITLE2=Taylor´s rock/Sonny Landreth
TTITLE3=Gonna send  you back to Georgia/Gov´t Mule
TTITLE4=Freddie´s Blues/ Magic Slim and The Teardrops
TTITLE5=See me in the evening/Steady Rollin´ Bob Margolin
TTITLE6=Let´s get funky/Elvin Bishop
TTITLE7=It´s allright (acoustic)/Vernon Reid and Alvin Youngblood Hart
TTITLE8=Hawaiian boogie/Dave Hole
TTITLE9=She´s gone/Michael Hill´s Blues Mob
TTITLE10=I just can´t make it/George Thorogood
TTITLE11=Wayward angel/Ronnie Earl and Friends
TTITLE12=Take five/Cub Coda and The Houserockers
TTITLE13=It´s allright/Lil´ Ed and The Blues Imperials
TTITLE14=Goodnight Boogie/Boogie Boy Ikuto
EXTD=
EXTT0=
EXTT1=
EXTT2=
EXTT3=
EXTT4=
EXTT5=
EXTT6=
EXTT7=
EXTT8=
EXTT9=
EXTT10=
EXTT11=
EXTT12=
EXTT13=
EXTT14=
PLAYORDER=
